<?xml version="1.0" encoding="UTF-8" standalone="no"?>
<!-- Created with Inkscape (http://www.inkscape.org/) -->

<svg
   xmlns:dc="http://purl.org/dc/elements/1.1/"
   xmlns:cc="http://creativecommons.org/ns#"
   xmlns:rdf="http://www.w3.org/1999/02/22-rdf-syntax-ns#"
   xmlns:svg="http://www.w3.org/2000/svg"
   xmlns="http://www.w3.org/2000/svg"
   xmlns:sodipodi="http://sodipodi.sourceforge.net/DTD/sodipodi-0.dtd"
   xmlns:inkscape="http://www.inkscape.org/namespaces/inkscape"
   version="1.1"
   id="svg864"
   xml:space="preserve"
   width="1600"
   height="1066.6667"
   viewBox="0 0 1600 1066.6667"
   sodipodi:docname="let_us_help.svg"
   inkscape:version="0.92.3 (2405546, 2018-03-11)"
   inkscape:export-filename="/home/janet/dev/surgeryforlife/graphics/let_us_help.png"
   inkscape:export-xdpi="96"
   inkscape:export-ydpi="96"><metadata
     id="metadata870"><rdf:RDF><cc:Work
         rdf:about=""><dc:format>image/svg+xml</dc:format><dc:type
           rdf:resource="http://purl.org/dc/dcmitype/StillImage" /><dc:title /></cc:Work></rdf:RDF></metadata><defs
     id="defs868" /><sodipodi:namedview
     pagecolor="#ffffff"
     bordercolor="#666666"
     borderopacity="1"
     objecttolerance="10"
     gridtolerance="10"
     guidetolerance="10"
     inkscape:pageopacity="0"
     inkscape:pageshadow="2"
     inkscape:window-width="1920"
     inkscape:window-height="971"
     id="namedview866"
     showgrid="false"
     inkscape:zoom="0.88499993"
     inkscape:cx="997.61593"
     inkscape:cy="523.27416"
     inkscape:window-x="0"
     inkscape:window-y="31"
     inkscape:window-maximized="1"
     inkscape:current-layer="g874" /><g
     id="g872"
     inkscape:groupmode="layer"
     inkscape:label="ink_ext_XXXXXX"
     transform="matrix(1.3333333,0,0,-1.3333333,0,1066.6667)"><g
       id="g874"
       transform="scale(0.1)"><path
   d="m 5919.99,792.832 c -2502.72,0 -4531.58,184.637 -4531.58,412.398 0,227.76 2028.86,412.4 4531.58,412.4 2502.72,0 4531.61,-184.64 4531.61,-412.4 0,-227.761 -2028.89,-412.398 -4531.61,-412.398"
   style="fill:#cecece;fill-opacity:1;fill-rule:nonzero;stroke:none"
   id="path878"
   inkscape:connector-curvature="0" /><path
   d="m 10697.627,5348.5679 c 0,0 -88.695,-11.9474 -187.42,5.3446 -94.497,16.5533 -198.04,62.1961 -251.925,69.4108 -36.285,4.8482 -146.416,3.59 -146.416,3.59 l 6.687,69.0875 c 0,0 110.229,1.2467 146.415,-3.6016 70.504,-9.431 158.314,-53.0075 253.105,-69.6069 98.234,-17.1998 186.24,-5.1484 186.24,-5.1484 l -6.686,-69.076"
   style="fill:#3ccaff;fill-opacity:1;fill-rule:nonzero;stroke:none;stroke-width:1.0654031"
   id="path880"
   inkscape:connector-curvature="0" /><path
   d="m 10691.235,5282.828 c 0,0 -88.695,-11.9475 -187.42,5.3446 -94.496,16.5418 -198.039,62.1845 -251.925,69.3992 -36.284,4.8367 -146.415,3.6016 -146.415,3.6016 l 6.686,69.0875 c 0,0 110.23,1.2467 146.416,-3.6016 70.503,-9.4425 158.313,-52.9959 253.105,-69.6185 98.233,-17.2113 186.24,-5.1484 186.24,-5.1484 l -6.687,-69.0644"
   style="fill:#ff7f9a;fill-opacity:1;fill-rule:nonzero;stroke:none;stroke-width:1.0654031"
   id="path882"
   inkscape:connector-curvature="0" /><path
   d="m 10684.844,5217.065 c 0,0 -88.695,-11.9244 -187.42,5.3562 -94.497,16.5648 -198.04,62.2076 -251.925,69.3991 -36.285,4.8483 -146.416,3.6131 -146.416,3.6131 l 6.687,69.0876 c 0,0 110.229,1.2236 146.415,-3.6016 70.504,-9.4541 158.314,-53.0075 253.105,-69.607 98.233,-17.2112 186.24,-5.1599 186.24,-5.1599 l -6.686,-69.0875"
   style="fill:#ececec;fill-opacity:1;fill-rule:nonzero;stroke:none;stroke-width:1.0654031"
   id="path884"
   inkscape:connector-curvature="0" /><path
   d="m 10678.452,5151.3366 c 0,0 -88.695,-11.9474 -187.42,5.3447 -94.496,16.5533 -198.039,62.196 -251.925,69.4107 -36.186,4.8482 -146.415,3.59 -146.415,3.59 l 6.686,69.0875 c 0,0 110.23,1.2467 146.416,-3.6016 70.602,-9.4309 158.313,-52.9959 253.105,-69.6069 98.233,-17.1997 186.24,-5.1368 186.24,-5.1368 l -6.687,-69.0876"
   style="fill:#ff7f9a;fill-opacity:1;fill-rule:nonzero;stroke:none;stroke-width:1.0654031"
   id="path886"
   inkscape:connector-curvature="0" /><path
   d="m 10672.061,5085.5967 c 0,0 -88.597,-11.9359 -187.42,5.3562 -94.497,16.5417 -198.04,62.173 -251.925,69.3876 -36.186,4.8367 -146.416,3.6131 -146.416,3.6131 l 6.687,69.076 c 0,0 110.229,1.2467 146.415,-3.6131 70.602,-9.431 158.314,-52.9844 253.105,-69.5954 98.233,-17.2228 186.24,-5.1599 186.24,-5.1599 l -6.686,-69.0645"
   style="fill:#54bfe7;fill-opacity:1;fill-rule:nonzero;stroke:none;stroke-width:1.0654031"
   id="path888"
   inkscape:connector-curvature="0" /><path
   d="m 10004.9,4600.81 101.7,907.1 23.9,-2.69 -101.7,-907.37 -23.9,2.96"
   style="fill:#ffffff;fill-opacity:1;fill-rule:nonzero;stroke:none"
   id="path892"
   inkscape:connector-curvature="0" /><path
   d="m 3794.37,3952.28 c 7.14,0.38 14.31,1.03 21.53,1.95 139.77,17.72 245.94,128.32 264.21,275.19 26.82,215.79 -166.49,232.42 -192.41,23.93 -8.26,-66.36 -54.27,-101.46 -96.22,-106.8 -48.25,-6.16 -89.39,24.3 -112.76,83.48 -54.34,137.55 -199.28,477.94 -205.42,492.36 l -178.38,-75.98 c 1.5,-3.5 150.06,-352.45 203.47,-487.62 53.02,-134.19 167.65,-213.32 295.98,-206.51"
   style="fill:#efc1a8;fill-opacity:1;fill-rule:nonzero;stroke:none"
   id="path894"
   inkscape:connector-curvature="0" /><path
   d="m 2680.89,1404.82 h -148.27 v 193.89 h 148.27 v -193.89"
   style="fill:#fccfb2;fill-opacity:1;fill-rule:nonzero;stroke:none"
   id="path896"
   inkscape:connector-curvature="0" /><path
   d="m 3205.53,1404.82 h -148.26 v 193.89 h 148.26 v -193.89"
   style="fill:#fccfb2;fill-opacity:1;fill-rule:nonzero;stroke:none"
   id="path898"
   inkscape:connector-curvature="0" /><path
   d="m 3467.85,1176.72 h -467.62 v 57.02 h 467.62 v -57.02"
   style="fill:#ffffff;fill-opacity:1;fill-rule:nonzero;stroke:none"
   id="path900"
   inkscape:connector-curvature="0" /><path
   d="m 3239.75,1412.33 v 67.1 c -45.63,-2.68 -64.49,-28.99 -64.49,-63.2 h -117.99 l -57.63,-182.49 h 468.21 v 43.78 c -68.43,51.41 -228.1,134.81 -228.1,134.81"
   style="fill:#373737;fill-opacity:1;fill-rule:nonzero;stroke:none"
   id="path902"
   inkscape:connector-curvature="0" /><path
   d="m 2464.18,1233.74 v -57.02 h 273.73 v 57.02 h -273.73"
   style="fill:#ffffff;fill-opacity:1;fill-rule:nonzero;stroke:none"
   id="path904"
   inkscape:connector-curvature="0" /><path
   d="m 2680.89,1416.23 h -5.13 c 0,34.21 -26.6,64.43 -63.86,67.1 -37.25,-2.67 -63.85,-32.89 -63.85,-67.1 h -15.43 l -68.44,-182.49 h 273.73 l -57.02,182.49"
   style="fill:#373737;fill-opacity:1;fill-rule:nonzero;stroke:none"
   id="path906"
   inkscape:connector-curvature="0" /><path
   d="m 2395.75,3537.62 v -292.09 c 11.41,-54.04 56.57,-112.12 97.22,-143.89 l 5.32,-1502.93 h 213.35 l -3.28,1486.25 327.79,-1.48 1.2,-1484.77 h 202.4 v 1938.91 h -844"
   style="fill:#464647;fill-opacity:1;fill-rule:nonzero;stroke:none"
   id="path908"
   inkscape:connector-curvature="0" /><path
   d="m 2737.91,1587.3 h -262.32 v 102.66 h 262.32 V 1587.3"
   style="fill:#b6b6ba;fill-opacity:1;fill-rule:nonzero;stroke:none"
   id="path910"
   inkscape:connector-curvature="0" /><path
   d="m 3262.56,1587.3 h -262.33 v 102.66 h 262.33 V 1587.3"
   style="fill:#b6b6ba;fill-opacity:1;fill-rule:nonzero;stroke:none"
   id="path912"
   inkscape:connector-curvature="0" /><path
   d="m 2084.45,3260.39 c -106.59,461.63 -119.23,852.23 -37.56,1160.94 63.61,240.43 163.45,342.09 174.63,352.89 l 136.84,-141.6 1.08,1.07 c -0.77,-0.8 -78.15,-82.16 -127.36,-283.02 -83.95,-342.63 -22.28,-757.92 44.23,-1045.97 l -191.86,-44.31"
   style="fill:#fccfb2;fill-opacity:1;fill-rule:nonzero;stroke:none"
   id="path914"
   inkscape:connector-curvature="0" /><path
   d="m 2338.73,4525.62 -250.94,101.13 c 22.34,275.61 295.7,600.59 730.69,600.59 434.99,0 707.75,-324.98 730.09,-600.59 L 3296.78,4525.62 V 3241.08 h -958.05 v 1284.54"
   style="fill:#ffffff;fill-opacity:1;fill-rule:nonzero;stroke:none"
   id="path916"
   inkscape:connector-curvature="0" /><path
   d="m 2643.32,5208.57 c 24.57,5.85 38.66,8.6 68.95,12.85 l 15.77,164.36 175.51,6.39 6.66,-168.7 c 36.04,-3.6 55.48,-7.64 84.22,-14.65 0.73,-8.76 0.03,-16.28 -0.33,-25.31 -4.3,-107.9 -86.27,-191.49 -183.09,-186.68 -96.81,4.8 -171.81,96.17 -167.51,204.08 0.07,1.78 -0.29,5.92 -0.18,7.66"
   style="fill:#fccfb2;fill-opacity:1;fill-rule:nonzero;stroke:none"
   id="path918"
   inkscape:connector-curvature="0" /><path
   d="m 3488.47,5888.6 c -0.35,-75.71 -61.86,-136.81 -137.39,-136.45 -75.53,0.34 -136.48,61.98 -136.16,137.71 0.36,75.71 61.87,136.79 137.42,136.45 75.53,-0.36 136.49,-62.01 136.13,-137.71"
   style="fill:#fccfb2;fill-opacity:1;fill-rule:nonzero;stroke:none"
   id="path920"
   inkscape:connector-curvature="0" /><path
   d="m 3370.08,5896.22 c 0.18,-295.2 -233.41,-534.69 -518.54,-534.87 -285.12,-0.2 -519.03,238.96 -519.22,534.19 l 7.98,145.06 c -0.2,295.22 225.31,535.14 510.43,535.33 285.14,0.19 508.29,-239.22 508.5,-534.44 l 10.85,-145.27"
   style="fill:#fccfb2;fill-opacity:1;fill-rule:nonzero;stroke:none"
   id="path922"
   inkscape:connector-curvature="0" /><path
   d="m 2477.08,5867.17 c -0.36,-75.71 -61.88,-136.81 -137.41,-136.46 -75.52,0.35 -136.47,62 -136.14,137.72 0.37,75.71 61.86,136.8 137.41,136.45 75.53,-0.35 136.49,-62.01 136.14,-137.71"
   style="fill:#fccfb2;fill-opacity:1;fill-rule:nonzero;stroke:none"
   id="path924"
   inkscape:connector-curvature="0" /><path
   d="m 3351,5752.15 v 0 c 12.46,45.83 19.11,94.16 19.08,144.07 v 0 c 0.03,-49.91 -6.62,-98.24 -19.08,-144.07 m 19.08,144.07 -3.55,47.57 2.7,0.2 c 0.04,-4.37 0.34,-8.91 0.82,-13.55 l 0.03,-34.22"
   style="fill:#d5b09e;fill-opacity:1;fill-rule:nonzero;stroke:none"
   id="path926"
   inkscape:connector-curvature="0" /><path
   d="m 2851.19,5361.35 c -229.8,0 -426.26,155.47 -493.83,370.42 28.23,3.52 53.8,15.67 74,33.74 28.24,-54.79 75.13,-102.43 152.81,-102.43 1.44,0 2.88,0.02 4.35,0.05 65.98,1.49 152.75,89.01 267.18,90.66 1.17,0.02 2.34,0.03 3.5,0.03 58.83,0 107.14,-21.38 149.35,-42.75 42.22,-21.37 78.35,-42.75 112.8,-42.75 0.06,0 0.11,0 0.16,0 186.97,0.31 191.29,271.36 191.29,271.36 l 53.73,4.11 3.55,-47.57 c 0.03,-49.91 -6.62,-98.24 -19.08,-144.07 -61.2,-225.28 -262.54,-390.65 -499.46,-390.8 -0.1,0 -0.24,0 -0.35,0"
   style="fill:#d5b09e;fill-opacity:1;fill-rule:nonzero;stroke:none"
   id="path928"
   inkscape:connector-curvature="0" /><path
   d="m 2357.36,5731.77 c -16.22,51.61 -25.01,106.63 -25.04,163.77 l -0.03,24.45 c 0.14,3.55 0.19,7.07 0.14,10.54 l 56.64,-3.7 c 0,0 4.08,-87.2 42.29,-161.32 -20.2,-18.07 -45.77,-30.22 -74,-33.74 v 0"
   style="fill:#d5b09e;fill-opacity:1;fill-rule:nonzero;stroke:none"
   id="path930"
   inkscape:connector-curvature="0" /><path
   d="m 2335.37,6138.99 c 10.34,162.98 143.07,444.88 506.13,461.24 361.73,-12.48 511.55,-285.01 523.61,-447.88 3.87,-52.44 4.12,-208.36 4.12,-208.36 l -56.43,-4.31 c -0.01,0 21.33,480.1 -267.57,397.12 -64.19,-18.44 -141.91,-37.15 -200.57,-38.2 -63.18,0.15 -127.16,10.4 -191.53,28.18 -289.75,79.93 -264.05,-399.95 -264.06,-399.95 l -56.79,3.7 c 0,0 -0.25,155.98 3.09,208.46"
   style="fill:#706053;fill-opacity:1;fill-rule:nonzero;stroke:none"
   id="path932"
   inkscape:connector-curvature="0" /><path
   d="m 2686.05,5836.51 c -9.43,-32.33 -41.84,-51.31 -72.38,-42.4 -30.54,8.91 -47.66,42.33 -38.25,74.67 9.43,32.31 41.85,51.31 72.39,42.39 30.55,-8.91 47.67,-42.33 38.24,-74.66"
   style="fill:#000000;fill-opacity:1;fill-rule:nonzero;stroke:none"
   id="path934"
   inkscape:connector-curvature="0" /><path
   d="m 3163.35,5838.96 c -9.42,-32.32 -41.82,-51.29 -72.37,-42.39 -30.56,8.91 -47.68,42.33 -38.27,74.65 9.45,32.32 41.85,51.32 72.41,42.41 30.54,-8.9 47.66,-42.33 38.23,-74.67"
   style="fill:#000000;fill-opacity:1;fill-rule:nonzero;stroke:none"
   id="path936"
   inkscape:connector-curvature="0" /><path
   d="m 2682.13,5643.33 374.44,6.98 c 0,0 -56.18,-116 -149.47,-131.01 -126.73,-20.41 -219.15,94.69 -224.97,124.03"
   style="fill:#ffffff;fill-opacity:1;fill-rule:nonzero;stroke:none"
   id="path938"
   inkscape:connector-curvature="0" /><path
   d="m 2430.6,6392.23 75.2,-77.35 c 0,0 496.75,-87.39 733.07,-12.13 114.21,36.37 141.34,78.93 209.42,306.94 -266.81,-95.58 -282.25,-115.84 -282.25,-115.84 0,0 132.02,137.18 248.24,188.25 -130.73,61.53 -365.26,48.55 -499.72,-34.51 8.14,29.36 41.87,68.6 214.19,129.49 -152.36,6.93 -538.65,-5.72 -590.87,-219.12 0,0 -52.7,21.37 -4.25,95.77 -83.57,-28.94 -193.33,-111.09 -103.03,-261.5"
   style="fill:#373737;fill-opacity:1;fill-rule:nonzero;stroke:none"
   id="path940"
   inkscape:connector-curvature="0" /><path
   d="m 4038.12,1484.66 h -171.08 v 193.89 h 171.08 v -193.89"
   style="fill:#ffffff;fill-opacity:1;fill-rule:nonzero;stroke:none"
   id="path962"
   inkscape:connector-curvature="0" /><path
   d="m 4619.79,1484.66 h -159.67 v 193.89 h 159.67 v -193.89"
   style="fill:#ffffff;fill-opacity:1;fill-rule:nonzero;stroke:none"
   id="path964"
   inkscape:connector-curvature="0" /><path
   d="m 4764.77,1430.42 c -20.2,2.01 -76.55,8.87 -76.55,8.87 v 169.98 c -45.62,-2.67 -79.83,-31.9 -79.83,-67.62 v -22.77 h -193.9 v -90.52 c -34.21,-5.8 -57.02,-31.05 -57.02,-61.34 v -110.47 h 570.26 c 1.79,105.86 -56.04,163.22 -162.96,173.87"
   style="fill:#5b5248;fill-opacity:1;fill-rule:nonzero;stroke:none"
   id="path966"
   inkscape:connector-curvature="0" /><path
   d="m 4927.73,1256.55 h -570.26 v -79.83 h 91.24 v 6.42 c 0,19.01 12.52,39.19 31.5,39.19 h 0.41 c 18.99,0 36.52,-20.18 36.52,-39.19 v -6.42 h 91.25 v 6.42 c 0,19.01 17.8,39.19 36.81,39.19 h 0.39 c 18.99,0 42.63,-20.18 42.63,-39.19 v -6.42 h 91.24 v 6.42 c 0,19.01 11.71,39.19 30.71,39.19 h 0.41 c 18.98,0 37.32,-20.18 37.32,-39.19 v -6.42 h 79.83 v 79.83"
   style="fill:#ccb29a;fill-opacity:1;fill-rule:nonzero;stroke:none"
   id="path968"
   inkscape:connector-curvature="0" /><path
   d="m 4072.33,1428.36 v 90.52 h -45.61 v 22.77 c 0,35.72 -31.57,64.95 -74.14,67.62 -42.57,-2.67 -74.13,-31.9 -74.13,-67.62 v -22.77 h -34.22 v -90.52 c -34.22,-5.8 -57.02,-31.05 -57.02,-61.34 v -110.47 h 330.75 v 110.47 c 0,30.29 -22.81,55.54 -45.63,61.34"
   style="fill:#5b5248;fill-opacity:1;fill-rule:nonzero;stroke:none"
   id="path970"
   inkscape:connector-curvature="0" /><path
   d="m 3787.21,1256.55 v -79.83 h 57.02 v 6.42 c 0,19.01 10.29,39.19 29.3,39.19 h 0.4 c 18.97,0 27.33,-20.18 27.33,-39.19 v -6.42 h 91.24 v 6.42 c 0,19.01 16.35,39.19 35.35,39.19 h 0.4 c 19.01,0 44.08,-20.18 44.08,-39.19 v -6.42 h 45.63 v 79.83 h -330.75"
   style="fill:#ccb29a;fill-opacity:1;fill-rule:nonzero;stroke:none"
   id="path972"
   inkscape:connector-curvature="0" /><path
   d="m 3713.64,3632.89 14.76,-310.75 c 9.61,-54.03 59.37,-110.49 103.64,-142.27 l 3.55,-1501.32 h 232.38 l -3.58,1484.64 357.07,5.82 1.3,-1490.46 h 218.93 l -3.37,1698.09 -0.04,0.39 -0.36,260.97 -924.28,-5.11"
   style="fill:#464647;fill-opacity:1;fill-rule:nonzero;stroke:none"
   id="path974"
   inkscape:connector-curvature="0" /><path
   d="m 4083.74,1655.74 h -262.32 v 79.84 h 262.32 v -79.84"
   style="fill:#b6b6ba;fill-opacity:1;fill-rule:nonzero;stroke:none"
   id="path976"
   inkscape:connector-curvature="0" /><path
   d="m 4665.41,1655.74 h -262.32 v 79.84 h 262.32 v -79.84"
   style="fill:#b6b6ba;fill-opacity:1;fill-rule:nonzero;stroke:none"
   id="path978"
   inkscape:connector-curvature="0" /><path
   d="m 4908.29,3302.96 c 106.59,461.65 119.23,852.24 37.58,1160.94 -63.61,240.43 -163.47,342.1 -174.65,352.9 l -136.84,-141.61 -1.07,1.07 c 0.78,-0.79 78.14,-82.16 127.35,-283.02 83.96,-342.62 22.28,-757.92 -44.22,-1045.97 l 191.85,-44.31"
   style="fill:#fccfb2;fill-opacity:1;fill-rule:nonzero;stroke:none"
   id="path980"
   inkscape:connector-curvature="0" /><path
   d="m 4870.97,4708.71 c -39.66,106.11 -114.32,210.51 -216.97,292.44 v -0.01 c -125.46,98.25 -279.49,159.13 -476.16,159.13 -195.58,0 -355.8,-65.71 -481.26,-163.1 -102.64,-84.55 -181.85,-192.95 -221.13,-302.97 l 220.51,-62.05 v -200.2 -1088.22 h 957.42 l -0.62,1282.95 218.21,82.03"
   style="fill:#ffffff;fill-opacity:1;fill-rule:nonzero;stroke:none"
   id="path982"
   inkscape:connector-curvature="0" /><path
   d="m 4337.29,5145.44 c -14.46,2.79 -29.25,7 -44.26,9.01 l -16.71,196.61 h -161.21 l -14.03,-194.26 c 0,-1.1 -35.65,-3.7 -45.39,-5.13 -10.24,-12.64 -14.5,-216.89 138.78,-216.89 143.98,0 150.17,199.63 142.82,210.66"
   style="fill:#fccfb2;fill-opacity:1;fill-rule:nonzero;stroke:none"
   id="path984"
   inkscape:connector-curvature="0" /><path
   d="m 4835.96,5746.38 c -3.24,-75.63 -67,-134.36 -142.48,-131.15 -75.45,3.22 -134.06,67.14 -130.82,142.79 3.21,75.64 67.02,134.35 142.5,131.14 75.46,-3.22 134.02,-67.15 130.8,-142.78"
   style="fill:#efc3ab;fill-opacity:1;fill-rule:nonzero;stroke:none"
   id="path986"
   inkscape:connector-curvature="0" /><path
   d="m 4706.93,5716.71 c -11.98,-281.26 -249.68,-499.57 -530.94,-487.58 -281.28,11.98 -499.57,249.69 -487.58,530.97 l 8.09,189.92 c 4.82,113.4 -1.09,273.68 65.17,355.65 98.13,121.32 297.91,139.06 465.77,131.92 281.26,-11.98 499.58,-249.7 487.58,-530.96 l -8.09,-189.92"
   style="fill:#fccfb2;fill-opacity:1;fill-rule:nonzero;stroke:none"
   id="path988"
   inkscape:connector-curvature="0" /><path
   d="m 3819.61,5769.32 c -3.2,-75.65 -67,-134.37 -142.47,-131.15 -75.45,3.22 -134.03,67.15 -130.82,142.79 3.22,75.65 67,134.34 142.49,131.14 75.45,-3.23 134.02,-67.14 130.8,-142.78"
   style="fill:#fccfb2;fill-opacity:1;fill-rule:nonzero;stroke:none"
   id="path990"
   inkscape:connector-curvature="0" /><path
   d="m 3752.21,5818.92 c 0,0 -36.22,24.97 -48.05,36.71 0,0 -65.5,156.54 -35.2,267.55 11.03,49.21 40.1,113.97 81.91,174.77 l 131.01,-117.56 c -52.34,-73.72 -103.66,-182.49 -129.67,-361.47"
   style="fill:#ba6338;fill-opacity:1;fill-rule:nonzero;stroke:none"
   id="path992"
   inkscape:connector-curvature="0" /><path
   d="m 4571.94,6222.88 100.32,38.15 c 0,0 96.7,-137.51 49.85,-375.42 l -11.9,-4.09 c 0,0 -5.8,238.08 -138.27,341.36"
   style="fill:#ba6338;fill-opacity:1;fill-rule:nonzero;stroke:none"
   id="path994"
   inkscape:connector-curvature="0" /><path
   d="m 3755.01,6302.08 131.06,-116.18 c 0,0 501.86,-50.35 731.94,42.19 111.2,44.72 140.98,69.41 168.71,321.87 C 4632.97,6318.5 3752,6922.44 3755.01,6302.08"
   style="fill:#a55532;fill-opacity:1;fill-rule:nonzero;stroke:none"
   id="path996"
   inkscape:connector-curvature="0" /><path
   d="m 4042.46,5736.8 c -8.92,-32.47 -41.06,-51.93 -71.73,-43.46 -30.68,8.45 -48.29,41.61 -39.35,74.09 8.95,32.45 41.07,51.92 71.75,43.46 30.67,-8.47 48.3,-41.63 39.33,-74.09"
   style="fill:#000000;fill-opacity:1;fill-rule:nonzero;stroke:none"
   id="path998"
   inkscape:connector-curvature="0" /><path
   d="m 4519.69,5734.87 c -8.96,-32.46 -41.08,-51.91 -71.76,-43.44 -30.67,8.44 -48.27,41.61 -39.34,74.07 8.96,32.45 41.08,51.92 71.76,43.46 30.69,-8.46 48.29,-41.63 39.34,-74.09"
   style="fill:#000000;fill-opacity:1;fill-rule:nonzero;stroke:none"
   id="path1000"
   inkscape:connector-curvature="0" /><path
   d="m 4041.19,5537.65 374.31,12.5 c 0,0 -54.49,-116.82 -147.54,-133.22 -126.39,-22.26 -220.51,91.47 -226.77,120.72"
   style="fill:#ffffff;fill-opacity:1;fill-rule:nonzero;stroke:none"
   id="path1002"
   inkscape:connector-curvature="0" /><path
   d="m 4262.04,5675.7 c 1.01,-6.36 7.08,-10.7 13.6,-9.68 6.54,1.01 11.01,7 10.02,13.37 -1.01,6.36 -7.1,10.7 -13.6,9.68 -6.52,-1.01 -11.01,-7 -10.02,-13.37"
   style="fill:#9b4b10;fill-opacity:1;fill-rule:nonzero;stroke:none"
   id="path1004"
   inkscape:connector-curvature="0" /><path
   d="m 4202.83,5710.54 c 0.73,-4.66 5.17,-7.83 9.95,-7.09 4.76,0.74 8.05,5.11 7.33,9.77 -0.73,4.65 -5.19,7.82 -9.95,7.09 -4.79,-0.74 -8.04,-5.12 -7.33,-9.77"
   style="fill:#9b4b10;fill-opacity:1;fill-rule:nonzero;stroke:none"
   id="path1006"
   inkscape:connector-curvature="0" /><path
   d="m 4157.43,5659.38 c 0.98,-6.36 7.08,-10.7 13.59,-9.68 6.53,1.02 11,7.01 10,13.38 -0.97,6.35 -7.06,10.7 -13.59,9.68 -6.52,-1.02 -10.99,-7 -10,-13.38"
   style="fill:#9b4b10;fill-opacity:1;fill-rule:nonzero;stroke:none"
   id="path1008"
   inkscape:connector-curvature="0" /><path
   d="m 4128.25,5711.85 c 0.87,-5.52 6.15,-9.29 11.83,-8.4 5.63,0.87 9.52,6.06 8.67,11.61 -0.85,5.51 -6.15,9.29 -11.81,8.4 -5.66,-0.89 -9.56,-6.09 -8.69,-11.61"
   style="fill:#9b4b10;fill-opacity:1;fill-rule:nonzero;stroke:none"
   id="path1010"
   inkscape:connector-curvature="0" /><path
   d="m 4076.68,5670.09 c 1.03,-6.54 7.27,-11 13.96,-9.96 6.72,1.05 11.32,7.21 10.3,13.74 -1.02,6.55 -7.27,11 -13.97,9.96 -6.71,-1.05 -11.32,-7.2 -10.29,-13.74"
   style="fill:#9b4b10;fill-opacity:1;fill-rule:nonzero;stroke:none"
   id="path1012"
   inkscape:connector-curvature="0" /><path
   d="m 4019.96,5640.17 c 0.78,-5.19 5.75,-8.71 11.06,-7.88 5.3,0.83 8.94,5.69 8.14,10.87 -0.82,5.18 -5.76,8.7 -11.06,7.88 -5.31,-0.83 -8.96,-5.69 -8.14,-10.87"
   style="fill:#9b4b10;fill-opacity:1;fill-rule:nonzero;stroke:none"
   id="path1014"
   inkscape:connector-curvature="0" /><path
   d="m 4327.75,5641.2 c 0.87,-5.62 6.25,-9.45 12.01,-8.56 5.75,0.9 9.71,6.19 8.84,11.81 -0.89,5.63 -6.27,9.46 -12.03,8.55 -5.74,-0.9 -9.69,-6.17 -8.82,-11.8"
   style="fill:#9b4b10;fill-opacity:1;fill-rule:nonzero;stroke:none"
   id="path1016"
   inkscape:connector-curvature="0" /><path
   d="m 4318.99,5697.43 c 0.87,-5.62 6.24,-9.45 12.01,-8.54 5.75,0.89 9.7,6.18 8.83,11.79 -0.87,5.63 -6.26,9.46 -12.01,8.56 -5.75,-0.9 -9.71,-6.19 -8.83,-11.81"
   style="fill:#9b4b10;fill-opacity:1;fill-rule:nonzero;stroke:none"
   id="path1018"
   inkscape:connector-curvature="0" /><path
   d="m 4394.09,5651.53 c 0.89,-5.62 6.25,-9.45 12.02,-8.53 5.76,0.89 9.71,6.16 8.84,11.79 -0.89,5.62 -6.27,9.46 -12.03,8.56 -5.74,-0.9 -9.7,-6.19 -8.83,-11.82"
   style="fill:#9b4b10;fill-opacity:1;fill-rule:nonzero;stroke:none"
   id="path1020"
   inkscape:connector-curvature="0" /><path
   d="m 4652.09,5684.23 c -9.36,-23.68 -19.99,-60.01 -54.79,-61.22 l -214.68,-0.5 c -45.18,0.1 -70.57,123.13 -77.43,184.99 -1.41,12.64 4.13,22.52 9.02,28.6 9.6,11.97 24.57,19.37 39.02,19.34 l 294.1,0.31 c 24.79,-0.07 37.1,-23.11 36.71,-50.43 -3.14,-13.78 -20.69,-92.54 -31.95,-121.09 z m -486.71,124.67 c -12.03,-61.79 -49.74,-185.74 -94.91,-185.6 l -214.68,-0.53 c -31.11,-2.46 -39.25,30.95 -46.58,54.68 -8.89,28.59 -15.58,116.32 -17.58,130.11 1.94,27.32 10.89,49.27 35.66,49.2 l 294.1,0.31 c 14.45,-0.03 28.78,-7.52 37.4,-19.53 4.37,-6.08 9.06,-16.01 6.59,-28.64 z m 492.19,104.76 -305.4,0.77 -226.64,0.57 -2.42,0.02 -303,0.75 c -42.11,0.11 -77.35,-37.86 -79.31,-84.64 l -0.07,-1.72 -0.07,-1.7 c -0.17,-4.26 13.86,-125.38 24.26,-158.93 8.45,-27.24 35.63,-78.76 78.1,-78.85 l 226.02,-0.57 c 77.28,-0.19 118.49,185.94 127.42,230.19 7.5,16.15 22.7,27.34 39.83,27.31 16.37,-0.04 30.13,-10.34 36.66,-25.38 4.59,-40.03 29.66,-232.71 108.25,-232.92 l 226,-0.55 c 42.49,-0.11 74.01,51.27 84.72,78.44 13.24,33.51 37.02,154.52 37.98,158.78 l 0.38,1.69 0.08,1.71 c 1.97,46.79 -30.68,84.93 -72.79,85.03"
   style="fill:#000000;fill-opacity:1;fill-rule:nonzero;stroke:none"
   id="path1022"
   inkscape:connector-curvature="0" /><path
   d="m 6511.96,6052.87 c -36.26,203.25 -181.37,408.14 -512.13,432.2 v 1.21 c 0,0.12 -4.32,0.26 -7.19,0.34 -11.35,0.31 -21.78,0.3 -32.75,0.15 -10.97,0.15 -21.59,0.16 -32.92,-0.15 -2.89,-0.08 -6.97,-0.22 -6.97,-0.34 v -1.14 c -376.38,-25.64 -500.08,-200.27 -529.2,-429.32 -32.78,-257.68 -33.98,-1252.39 -32.29,-1363.32 33.68,-172.77 112.72,-193.35 220.08,-300.25 106.42,-105.93 240.9,-169.17 387.01,-169.17 142.54,0 273.95,60.22 379.09,161.5 100.53,96.86 177.18,231.27 216.5,386.66 2.12,139.18 0.26,1004.2 -49.23,1281.63"
   style="fill:#cccccc;fill-opacity:1;fill-rule:nonzero;stroke:none"
   id="path1024"
   inkscape:connector-curvature="0" /><path
   d="m 5851.56,1393.42 h -182.48 v 1380.05 h 182.48 V 1393.42"
   style="fill:#f4ac89;fill-opacity:1;fill-rule:nonzero;stroke:none"
   id="path1026"
   inkscape:connector-curvature="0" /><path
   d="m 6330.59,1393.42 h -182.48 v 1380.05 h 182.48 V 1393.42"
   style="fill:#f4ac89;fill-opacity:1;fill-rule:nonzero;stroke:none"
   id="path1028"
   inkscape:connector-curvature="0" /><path
   d="m 6581.5,1176.72 h -467.61 v 57.02 h 467.61 v -57.02"
   style="fill:#ffffff;fill-opacity:1;fill-rule:nonzero;stroke:none"
   id="path1030"
   inkscape:connector-curvature="0" /><path
   d="m 6353.4,1560.74 v 65.47 c -22.81,-2.6 -61.68,-30.61 -61.68,-65.47 l -143.61,-0.79 v -166.53 l -34.22,-159.68 h 467.61 v 39.67 c -34.21,43.21 -189.76,112.23 -223.95,129.82 l -4.15,157.51"
   style="fill:#d84c96;fill-opacity:1;fill-rule:nonzero;stroke:none"
   id="path1032"
   inkscape:connector-curvature="0" /><path
   d="m 6277.69,1471.2 c 0,-21.37 -17.34,-38.69 -38.7,-38.69 -21.38,0 -38.71,17.32 -38.71,38.69 0,21.37 17.33,38.7 38.71,38.7 21.36,0 38.7,-17.33 38.7,-38.7"
   style="fill:#ffffff;fill-opacity:1;fill-rule:nonzero;stroke:none"
   id="path1034"
   inkscape:connector-curvature="0" /><path
   d="m 5612.05,1233.74 v -57.02 h 285.14 v 57.02 h -285.14"
   style="fill:#ffffff;fill-opacity:1;fill-rule:nonzero;stroke:none"
   id="path1036"
   inkscape:connector-curvature="0" /><path
   d="m 5851.56,1566.58 -32.57,-0.62 c 0,36.33 -25.31,62.85 -61.67,65.47 -36.33,-2.62 -64.14,-30.63 -64.14,-65.47 l -24.1,0.19 v -172.73 l -57.03,-159.68 h 285.14 l -45.63,160.82 v 172.02"
   style="fill:#d84c96;fill-opacity:1;fill-rule:nonzero;stroke:none"
   id="path1038"
   inkscape:connector-curvature="0" /><path
   d="m 5543.62,3480.6 v -286.89 c 11.41,-52.71 54.7,-113.24 94.34,-144.26 l 4.69,-275.98 h 231.73 v 263.41 l 250.91,-1.23 v -262.18 h 228.11 v 707.13 h -809.78"
   style="fill:#2b72b6;fill-opacity:1;fill-rule:nonzero;stroke:none"
   id="path1040"
   inkscape:connector-curvature="0" /><path
   d="m 5897.19,2727.84 h -273.73 v 91.24 h 273.73 v -91.24"
   style="fill:#b6b6ba;fill-opacity:1;fill-rule:nonzero;stroke:none"
   id="path1042"
   inkscape:connector-curvature="0" /><path
   d="m 6387.62,2727.84 h -273.73 v 91.24 h 273.73 v -91.24"
   style="fill:#b6b6ba;fill-opacity:1;fill-rule:nonzero;stroke:none"
   id="path1044"
   inkscape:connector-curvature="0" /><path
   d="m 5246.1,3213.42 187.21,43.22 c -64.89,281.07 -125.07,686.3 -43.15,1020.61 48.02,195.99 123.5,275.4 124.27,276.18 l -1.06,-1.05 -133.52,138.16 c -10.9,-10.54 -108.33,-109.74 -170.39,-344.32 -79.7,-301.24 -67.36,-682.36 36.64,-1132.8"
   style="fill:#f4ac89;fill-opacity:1;fill-rule:nonzero;stroke:none"
   id="path1046"
   inkscape:connector-curvature="0" /><path
   d="m 6669.19,3213.42 -187.23,43.22 c 64.91,281.07 125.07,686.3 43.17,1020.61 -48.03,195.99 -123.53,275.4 -124.28,276.18 l 1.06,-1.05 133.51,138.16 c 10.92,-10.54 108.35,-109.74 170.41,-344.32 79.68,-301.24 67.36,-682.36 -36.64,-1132.8"
   style="fill:#f4ac89;fill-opacity:1;fill-rule:nonzero;stroke:none"
   id="path1048"
   inkscape:connector-curvature="0" /><path
   d="m 5498,4448 -250.66,98.66 c 21.8,268.93 285.65,586.04 710.08,586.04 424.44,0 689.46,-317.11 711.25,-586.04 L 6421.84,4448 V 3184.05 H 5498 V 4448"
   style="fill:#ffffff;fill-opacity:1;fill-rule:nonzero;stroke:none"
   id="path1050"
   inkscape:connector-curvature="0" /><path
   d="m 5783.6,5114.38 c 23.98,5.71 37.73,8.38 67.3,12.52 l 15.37,160.39 171.25,6.22 6.49,-164.61 c 35.17,-3.5 54.15,-7.45 82.2,-14.29 0.7,-8.55 0.02,-15.89 -0.32,-24.71 -4.2,-105.27 -84.19,-186.83 -178.67,-182.15 -94.47,4.7 -167.64,93.85 -163.44,199.13 0.07,1.75 -0.29,5.79 -0.18,7.5"
   style="fill:#f4ac89;fill-opacity:1;fill-rule:nonzero;stroke:none"
   id="path1052"
   inkscape:connector-curvature="0" /><path
   d="m 6473.96,5733.03 c 4.52,-274.66 -214.45,-500.96 -489.12,-505.48 -274.64,-4.52 -500.96,214.46 -505.48,489.11 l -3.04,185.47 c -4.53,274.65 214.46,500.96 489.1,505.49 274.66,4.52 500.99,-214.47 505.49,-489.12 l 3.05,-185.47"
   style="fill:#f4ac89;fill-opacity:1;fill-rule:nonzero;stroke:none"
   id="path1054"
   inkscape:connector-curvature="0" /><path
   d="m 5596.14,5727.06 c 1.21,-73.87 -57.53,-134.73 -131.22,-135.93 -73.71,-1.21 -134.43,57.68 -135.66,131.55 -1.2,73.86 57.55,134.72 131.25,135.94 73.69,1.2 134.41,-57.69 135.63,-131.56"
   style="fill:#f4ac89;fill-opacity:1;fill-rule:nonzero;stroke:none"
   id="path1056"
   inkscape:connector-curvature="0" /><path
   d="m 5850.45,5707.3 c -9.88,-31.33 -41.9,-49.16 -71.5,-39.8 -29.62,9.36 -45.6,42.34 -35.71,73.67 9.91,31.33 41.95,49.14 71.55,39.8 29.59,-9.37 45.57,-42.36 35.66,-73.67"
   style="fill:#000000;fill-opacity:1;fill-rule:nonzero;stroke:none"
   id="path1058"
   inkscape:connector-curvature="0" /><path
   d="m 6316.12,5699.29 c -9.9,-31.32 -41.91,-49.14 -71.51,-39.79 -29.61,9.36 -45.6,42.33 -35.7,73.65 9.91,31.33 41.94,49.15 71.56,39.8 29.59,-9.36 45.57,-42.33 35.65,-73.66"
   style="fill:#000000;fill-opacity:1;fill-rule:nonzero;stroke:none"
   id="path1060"
   inkscape:connector-curvature="0" /><path
   d="m 5853.54,5523.86 365.42,-1.33 c 0,0 -57.31,-111.95 -148.65,-124.57 -124.07,-17.14 -211.73,97.17 -216.77,125.9"
   style="fill:#ffffff;fill-opacity:1;fill-rule:nonzero;stroke:none"
   id="path1062"
   inkscape:connector-curvature="0" /><path
   d="m 5753.39,6055.25 c 0,0 -181.14,-387.73 -214.57,-813.67 l -77.06,12.21 c 0,0 -20.19,530.27 30.68,801.46 h 260.95"
   style="fill:#e6e6e6;fill-opacity:1;fill-rule:nonzero;stroke:none"
   id="path1064"
   inkscape:connector-curvature="0" /><path
   d="m 5991.85,6132.58 294.22,1.21 c 1.55,74.05 -55.37,133.88 -127.1,133.57 l -34.45,-0.13 c -71.73,-0.29 -131.12,-60.58 -132.67,-134.65"
   style="fill:#f7a388;fill-opacity:1;fill-rule:nonzero;stroke:none"
   id="path1070"
   inkscape:connector-curvature="0" /><path
   d="m 8282.23,3751.09 c -114.94,0 -280.76,31.25 -520.41,95.47 -17.37,4.66 -37.05,9.94 -42.05,10.99 38.91,-8.11 90.98,14.52 107.53,65.41 15.72,48.36 -9.52,95.01 -43.12,113.45 l -71.84,-179.64 c -6.83,2.72 -11.76,4.86 -14.98,6.35 -53.62,24.91 -67.88,79.43 -54.24,120.41 4.77,14.38 33.54,84.82 129.65,60.68 9.25,-2.33 22.6,-5.9 39.23,-10.36 408.63,-109.5 506.1,-92.11 527.31,-82.99 55.86,45.61 150.51,278.33 208.11,580.42 l 190.47,-36.26 c -18.02,-94.73 -116.37,-573.69 -283.26,-700.1 -38.33,-29.03 -93.33,-43.83 -172.4,-43.83"
   style="fill:#fccfb2;fill-opacity:1;fill-rule:nonzero;stroke:none"
   id="path1072"
   inkscape:connector-curvature="0" /><path
   d="m 8896.79,1393.42 h -148.27 v 182.48 h 148.27 v -182.48"
   style="fill:#fccfb2;fill-opacity:1;fill-rule:nonzero;stroke:none"
   id="path1074"
   inkscape:connector-curvature="0" /><path
   d="m 9398.62,1393.42 h -136.86 v 182.48 h 136.86 v -182.48"
   style="fill:#fccfb2;fill-opacity:1;fill-rule:nonzero;stroke:none"
   id="path1076"
   inkscape:connector-curvature="0" /><path
   d="m 8520.41,1176.72 h 433.41 v 57.02 h -433.41 v -57.02"
   style="fill:#ffffff;fill-opacity:1;fill-rule:nonzero;stroke:none"
   id="path1078"
   inkscape:connector-curvature="0" /><path
   d="m 8737.12,1402.79 v 63.92 c 34.21,-2.54 52.09,-27.67 52.09,-61.89 h 105 l 57.02,-171.08 h -430.82 v 40.62 c 45.63,48.98 216.71,128.43 216.71,128.43"
   style="fill:#373737;fill-opacity:1;fill-rule:nonzero;stroke:none"
   id="path1080"
   inkscape:connector-curvature="0" /><path
   d="m 9204.74,1233.74 v -57.02 h 262.31 v 57.02 h -262.31"
   style="fill:#ffffff;fill-opacity:1;fill-rule:nonzero;stroke:none"
   id="path1082"
   inkscape:connector-curvature="0" /><path
   d="m 9396.04,1404.82 h -10 c 0,34.22 -25.34,61.39 -60.83,63.94 -35.49,-2.55 -60.84,-29.72 -60.84,-63.94 h -5.19 l -54.44,-171.08 h 262.31 l -71.01,171.08"
   style="fill:#373737;fill-opacity:1;fill-rule:nonzero;stroke:none"
   id="path1084"
   inkscape:connector-curvature="0" /><path
   d="m 9535.49,3434.97 v -285.78 c -11.41,-51.47 -53.2,-109 -91.92,-139.27 l -4.38,-1434.02 h -203.25 l 3.14,1418.11 -312.28,-2.51 -1.15,-1415.6 h -188.53 v 1859.07 h 798.37"
   style="fill:#464647;fill-opacity:1;fill-rule:nonzero;stroke:none"
   id="path1086"
   inkscape:connector-curvature="0" /><path
   d="m 8953.82,1575.9 h -239.51 v 91.25 h 239.51 v -91.25"
   style="fill:#b6b6ba;fill-opacity:1;fill-rule:nonzero;stroke:none"
   id="path1088"
   inkscape:connector-curvature="0" /><path
   d="m 9455.65,1575.9 h -250.91 v 91.25 h 250.91 v -91.25"
   style="fill:#b6b6ba;fill-opacity:1;fill-rule:nonzero;stroke:none"
   id="path1090"
   inkscape:connector-curvature="0" /><path
   d="m 9981.47,3855.67 c -1.81,-0.05 -3.6,-0.09 -5.44,-0.07 -53.22,-0.04 -103.3,23.86 -148.85,71.06 -31.43,32.56 -60.78,76.11 -89.68,133.15 -43.24,85.32 -85.59,202.16 -125.87,347.32 l 181.62,90.07 c 89.72,-335.74 161.29,-414.55 181.63,-431.04 9.38,8.08 26.42,27.95 46.42,67.97 25.1,50.53 47.5,119.1 63,193.11 33.8,160.67 32.8,327.24 -2.4,436.35 -6.7,3.29 -24.8,8.67 -58.6,8.49 -36.62,-0.2 -74.3,-6.54 -96.83,-10.34 -8.8,-1.48 -15.76,-2.65 -21.96,-3.36 l -22.65,206.11 c 1.8,0.22 7.73,1.22 12.52,2.02 34.8,5.86 99.6,16.78 165.32,11.64 43.2,-3.38 80.9,-13.45 112.1,-29.96 46.4,-24.49 79.6,-63.31 96,-112.24 41.3,-123.36 50.8,-286.83 26.6,-460.3 -22.7,-162.99 -71.5,-309.42 -134.1,-401.75 -35.7,-52.79 -95.6,-115.54 -178.83,-118.23"
   style="fill:#fccfb2;fill-opacity:1;fill-rule:nonzero;stroke:none"
   id="path1092"
   inkscape:connector-curvature="0" /><path
   d="m 8680.09,4373.77 -238.37,96.35 c 21.28,262.56 282.07,572.16 696.45,572.16 414.4,0 673.61,-309.6 694.88,-572.16 l -240.54,-96.35 V 3149.83 h -912.42 v 1223.94"
   style="fill:#ffffff;fill-opacity:1;fill-rule:nonzero;stroke:none"
   id="path1094"
   inkscape:connector-curvature="0" /><path
   d="m 8482.62,5644.57 c 30.93,200.08 129.04,733.89 619.46,768.77 v 1.18 c 0,0.12 6.16,0.26 8.97,0.33 11.07,0.32 22.22,0.31 32.93,0.15 10.75,0.16 14.88,0.17 25.94,-0.15 2.8,-0.07 0.6,-0.21 0.6,-0.33 v -1.13 c 513.24,-34.22 597.57,-568.6 628.51,-768.82 28.51,-222.12 1.86,-501.47 1.86,-501.47 -855.85,-107.38 -1318.84,0 -1318.84,0 0,0 -27.94,279.36 0.57,501.47"
   style="fill:#373737;fill-opacity:1;fill-rule:nonzero;stroke:none"
   id="path1096"
   inkscape:connector-curvature="0" /><path
   d="m 8971.66,5024.38 c 23.41,5.59 36.78,7.38 65.63,11.44 l 15.08,157.4 167.2,6.07 6.37,-161.64 c 34.35,-3.41 52.84,-6.36 80.21,-13.02 0.7,-8.35 0.03,-15.51 -0.29,-24.12 -4.11,-102.8 -82.21,-182.42 -174.43,-177.84 -92.25,4.58 -163.7,91.61 -159.6,194.42 0.07,1.69 -0.26,5.62 -0.17,7.29"
   style="fill:#fccfb2;fill-opacity:1;fill-rule:nonzero;stroke:none"
   id="path1098"
   inkscape:connector-curvature="0" /><path
   d="m 8658.28,5679.1 c -4.41,-268.15 209.39,-489.11 477.53,-493.52 268.15,-4.42 489.11,209.39 493.52,477.55 l 2.98,181.07 c 4.42,268.15 -209.38,489.1 -477.52,493.52 -268.17,4.41 -489.14,-209.38 -493.53,-477.54 l -2.98,-181.08"
   style="fill:#fccfb2;fill-opacity:1;fill-rule:nonzero;stroke:none"
   id="path1100"
   inkscape:connector-curvature="0" /><path
   d="m 9489.95,5673.29 c -1.17,-72.11 56.18,-131.54 128.14,-132.72 71.94,-1.19 131.25,56.31 132.43,128.42 1.18,72.12 -56.18,131.54 -128.14,132.73 -71.93,1.18 -131.25,-56.32 -132.43,-128.43"
   style="fill:#fccfb2;fill-opacity:1;fill-rule:nonzero;stroke:none"
   id="path1102"
   inkscape:connector-curvature="0" /><path
   d="m 9524.88,5199.29 123.24,-29.76 c 0,0 18.95,501.14 -8.69,774.01 0,0 -58.03,276.37 -126.37,333.73 -88.29,74.09 -452.85,86.1 -452.85,86.1 0,0 433.46,-167.04 464.67,-1164.08"
   style="fill:#373737;fill-opacity:1;fill-rule:nonzero;stroke:none"
   id="path1104"
   inkscape:connector-curvature="0" /><path
   d="m 9098.23,6258.12 -552.64,-907.86 c 0,0 -49.09,427.68 107.21,646.71 234.29,328.37 445.43,261.15 445.43,261.15"
   style="fill:#373737;fill-opacity:1;fill-rule:nonzero;stroke:none"
   id="path1106"
   inkscape:connector-curvature="0" /><path
   d="m 9284.29,5474.87 -356.78,-1.29 c 0,0 55.97,-109.3 145.14,-121.63 121.12,-16.73 206.71,94.88 211.64,122.92"
   style="fill:#ffffff;fill-opacity:1;fill-rule:nonzero;stroke:none"
   id="path1108"
   inkscape:connector-curvature="0" /><path
   d="m 9744.75,5870.17 c 32.53,154.38 -123.4,591.77 -128.38,754.69 -3.59,117.95 -103.67,160.62 -175.87,175.53 -91.79,18.95 -213.02,6.24 -256.89,-77.33 C 9129.39,6619.69 8998.78,6524.91 8960.84,6496.6 8845,6410.17 8674.8,6222.55 8642.66,6069.96 l 1102.09,-199.79"
   style="fill:#ee509c;fill-opacity:1;fill-rule:nonzero;stroke:none"
   id="path1110"
   inkscape:connector-curvature="0" /><path
   d="m 8544.45,5994.36 c -1.47,-9.98 7.86,-18.24 18.25,-19.75 L 9790.77,5777.7 c 10.36,-1.54 21.67,3.68 23.17,13.63 l -9.03,226.97 c 1.48,9.98 -7.87,18.23 -18.23,19.76 l -1132.79,178.2 c -10.38,1.54 -21.69,-3.67 -23.17,-13.63 l -86.27,-208.27"
   style="fill:#d84c96;fill-opacity:1;fill-rule:nonzero;stroke:none"
   id="path1112"
   inkscape:connector-curvature="0" /><path
   d="m 8942.41,5645.87 c 0,13.55 -10.99,24.55 -24.56,24.55 h -121.96 c -13.57,0 -24.56,-11 -24.56,-24.55 v -7.93 c 0,-13.56 10.99,-24.55 24.56,-24.55 h 121.96 c 13.57,0 24.56,10.99 24.56,24.55 v 7.93"
   style="fill:#000000;fill-opacity:1;fill-rule:nonzero;stroke:none"
   id="path1114"
   inkscape:connector-curvature="0" /><path
   d="m 9432.84,5645.87 c 0,13.55 -10.98,24.55 -24.54,24.55 h -122 c -13.56,0 -24.54,-11 -24.54,-24.55 v -7.93 c 0,-13.56 10.98,-24.55 24.54,-24.55 h 122 c 13.56,0 24.54,10.99 24.54,24.55 v 7.93"
   style="fill:#000000;fill-opacity:1;fill-rule:nonzero;stroke:none"
   id="path1116"
   inkscape:connector-curvature="0" /><path
   d="m 7310.03,1404.61 h 180.96 V 3043.75 H 7310.03 V 1404.61"
   style="fill:#9b6d5c;fill-opacity:1;fill-rule:nonzero;stroke:none"
   id="path1128"
   inkscape:connector-curvature="0" /><path
   d="m 7899.41,1403.95 h 182.48 V 3034.9 H 7899.41 V 1403.95"
   style="fill:#9b6d5c;fill-opacity:1;fill-rule:nonzero;stroke:none"
   id="path1130"
   inkscape:connector-curvature="0" /><path
   d="m 6998.39,1153.03 h 558.87 v 68.43 h -558.87 v -68.43"
   style="fill:#ffffff;fill-opacity:1;fill-rule:nonzero;stroke:none"
   id="path1132"
   inkscape:connector-curvature="0" /><path
   d="M 7272.12,1415.21 V 1490 c 45.62,-2.97 78.37,-29.03 78.37,-74.65 h 138.32 l 68.45,-193.89 h -558.87 v 43.5 c 68.44,57.31 273.73,150.25 273.73,150.25"
   style="fill:#373737;fill-opacity:1;fill-rule:nonzero;stroke:none"
   id="path1134"
   inkscape:connector-curvature="0" /><path
   d="m 8138.93,1221.46 v -68.43 h -319.35 v 68.43 h 319.35"
   style="fill:#ffffff;fill-opacity:1;fill-rule:nonzero;stroke:none"
   id="path1136"
   inkscape:connector-curvature="0" /><path
   d="m 7899.41,1415.35 h 5.02 c 0,45.62 32.74,71.81 78.54,74.78 45.83,-2.97 78.57,-29.16 78.57,-74.78 h 20.35 l 57.04,-193.89 h -319.35 l 79.83,193.89"
   style="fill:#373737;fill-opacity:1;fill-rule:nonzero;stroke:none"
   id="path1138"
   inkscape:connector-curvature="0" /><path
   d="m 8218.76,3616.57 v -297.78 c -11.41,-54.01 -63.57,-109.55 -108.42,-141.32 l -7.01,-233.81 h -251.42 l 3.61,217.1 -329.86,-0.2 -1.3,-216.9 h -240.83 v 672.91 h 935.23"
   style="fill:#464647;fill-opacity:1;fill-rule:nonzero;stroke:none"
   id="path1140"
   inkscape:connector-curvature="0" /><path
   d="m 7830.98,2875.23 h 296.54 v 102.65 h -296.54 v -102.65"
   style="fill:#b6b6ba;fill-opacity:1;fill-rule:nonzero;stroke:none"
   id="path1142"
   inkscape:connector-curvature="0" /><path
   d="m 7260.71,2875.23 h 296.55 v 102.65 h -296.55 v -102.65"
   style="fill:#b6b6ba;fill-opacity:1;fill-rule:nonzero;stroke:none"
   id="path1144"
   inkscape:connector-curvature="0" /><path
   d="m 8230.17,4603.06 251.48,101.12 c -22.34,275.61 -295.45,600.6 -730.43,600.6 -434.98,0 -713.87,-324.99 -736.2,-600.6 l 245.69,-101.12 V 3320.04 h 969.46 v 1283.02"
   style="fill:#ffffff;fill-opacity:1;fill-rule:nonzero;stroke:none"
   id="path1146"
   inkscape:connector-curvature="0" /><path
   d="m 7926.63,5286.01 c -24.57,5.85 -38.64,8.59 -68.94,12.83 l -15.75,164.37 -175.51,6.38 -6.65,-168.7 c -36.06,-3.59 -55.5,-7.64 -84.25,-14.64 -0.73,-8.76 -0.02,-16.28 0.34,-25.32 4.31,-107.91 86.28,-191.49 183.09,-186.67 96.81,4.79 171.81,96.16 167.5,204.07 -0.04,1.78 0.3,5.92 0.17,7.68"
   style="fill:#9b6d5c;fill-opacity:1;fill-rule:nonzero;stroke:none"
   id="path1148"
   inkscape:connector-curvature="0" /><path
   d="m 7081.5,5966.02 c 0.34,-75.7 61.85,-136.8 137.41,-136.45 75.5,0.34 136.45,61.99 136.13,137.72 -0.34,75.7 -61.87,136.78 -137.4,136.44 -75.54,-0.35 -136.49,-62.01 -136.14,-137.71"
   style="fill:#9b6d5c;fill-opacity:1;fill-rule:nonzero;stroke:none"
   id="path1150"
   inkscape:connector-curvature="0" /><path
   d="m 7199.89,5973.64 c -0.19,-295.19 233.41,-534.68 518.54,-534.87 285.12,-0.2 519.04,238.97 519.23,534.19 l 0.1,145.53 c 0.21,295.2 -233.41,534.67 -518.52,534.87 -285.13,0.19 -519.04,-238.97 -519.23,-534.18 l -0.12,-145.54"
   style="fill:#9b6d5c;fill-opacity:1;fill-rule:nonzero;stroke:none"
   id="path1152"
   inkscape:connector-curvature="0" /><path
   d="m 8092.89,5944.59 c 0.37,-75.7 61.88,-136.8 137.41,-136.45 75.52,0.36 136.47,62 136.13,137.71 -0.36,75.72 -61.86,136.81 -137.4,136.45 -75.53,-0.35 -136.49,-62 -136.14,-137.71"
   style="fill:#9b6d5c;fill-opacity:1;fill-rule:nonzero;stroke:none"
   id="path1154"
   inkscape:connector-curvature="0" /><path
   d="m 7718.43,5438.77 c 285.12,-0.2 519.04,238.97 519.23,534.19 l 0.02,24.45 c -0.13,3.55 -0.18,7.07 -0.13,10.54 l -56.66,-3.7 c 0,0 -12.52,-267.9 -199.43,-263.68 -65.98,1.47 -152.76,89 -267.2,90.64 -119.76,1.73 -196.18,-85.59 -265.8,-85.46 -186.97,0.3 -191.28,271.35 -191.28,271.35 l -56.45,4.32 c -0.03,-4.38 -0.33,-8.92 -0.81,-13.55 l -0.03,-34.23 c -0.19,-295.19 233.41,-534.68 518.54,-534.87"
   style="fill:#77564d;fill-opacity:1;fill-rule:nonzero;stroke:none"
   id="path1156"
   inkscape:connector-curvature="0" /><path
   d="m 8234.6,6216.43 c -10.33,162.97 -143.08,444.86 -506.13,461.24 -361.74,-12.49 -511.55,-285.02 -523.6,-447.88 -3.87,-52.45 -4.14,-208.37 -4.14,-208.37 l 56.45,-4.32 c 0,0 -21.34,480.1 267.57,397.12 64.18,-18.43 141.9,-37.15 200.57,-38.18 63.16,0.13 127.16,10.39 191.53,28.15 289.75,79.95 264.03,-399.94 264.03,-399.94 l 56.82,3.7 c 0,0 0.24,155.99 -3.1,208.48"
   style="fill:#4f3934;fill-opacity:1;fill-rule:nonzero;stroke:none"
   id="path1158"
   inkscape:connector-curvature="0" /><path
   d="m 7883.91,5913.94 c 9.42,-32.33 41.84,-51.31 72.39,-42.4 30.54,8.9 47.66,42.32 38.25,74.66 -9.44,32.33 -41.85,51.31 -72.39,42.39 -30.54,-8.9 -47.68,-42.33 -38.25,-74.65"
   style="fill:#000000;fill-opacity:1;fill-rule:nonzero;stroke:none"
   id="path1160"
   inkscape:connector-curvature="0" /><path
   d="m 7406.62,5916.39 c 9.42,-32.32 41.82,-51.3 72.37,-42.4 30.55,8.92 47.68,42.34 38.26,74.65 -9.45,32.33 -41.84,51.33 -72.41,42.41 -30.53,-8.9 -47.66,-42.33 -38.22,-74.66"
   style="fill:#000000;fill-opacity:1;fill-rule:nonzero;stroke:none"
   id="path1162"
   inkscape:connector-curvature="0" /><path
   d="m 7897.84,5709.35 -374.43,6.98 c 0,0 56.16,-116.01 149.45,-131.02 126.73,-20.41 219.16,94.7 224.98,124.04"
   style="fill:#ffffff;fill-opacity:1;fill-rule:nonzero;stroke:none"
   id="path1164"
   inkscape:connector-curvature="0" /><path
   d="m 3718.46,3771.96 c -201.37,0 -318.02,42.72 -369,131.91 -60.52,105.93 -44.76,277.27 49.61,539.23 34.43,95.56 72.53,183.38 100.49,244.32 l 189.11,-53.22 c -26.51,-56.4 -70.04,-153.47 -107.78,-258.47 -101.74,-283.04 -69.28,-363.88 -63.46,-374.96 4.42,-4.38 69.04,-60.41 423.53,-20.5 203.55,22.93 392.81,65.8 394.69,66.22 l 43.1,-189.03 c -8.57,-1.96 -212.38,-48.1 -433.11,-71.72 -85.35,-9.13 -160.87,-13.77 -227.18,-13.78"
   style="fill:#fccfb2;fill-opacity:1;fill-rule:nonzero;stroke:none"
   id="path1182"
   inkscape:connector-curvature="0" /><path
   d="m 6651.21,4981.82 c 0,-88.49 -66.39,-160.22 -148.27,-160.22 -81.89,0 -148.27,71.73 -148.27,160.22 0,88.49 66.38,160.22 148.27,160.22 81.88,0 148.27,-71.73 148.27,-160.22"
   style="fill:#9b6d5c;fill-opacity:1;fill-rule:nonzero;stroke:none"
   id="path1184"
   inkscape:connector-curvature="0" /><path
   d="m 7981.37,3799.93 c -55.9,0 -117.09,3.4 -183.7,10.17 -205.35,20.88 -388.52,66.48 -396.21,68.41 l 49.96,199.13 c 1.72,-0.44 178.24,-44.29 369.07,-63.5 251.95,-25.38 373.69,8.33 401.37,44.89 79.36,104.87 56.85,370.34 18.98,548.33 l 192.78,77.47 c 11.02,-48.32 30.82,-145.29 40.76,-256.15 20.01,-223.16 -9.87,-389.21 -88.81,-493.52 -68.5,-90.53 -201.48,-135.23 -404.2,-135.23"
   style="fill:#9b6d5c;fill-opacity:1;fill-rule:nonzero;stroke:none"
   id="path1186"
   inkscape:connector-curvature="0" /><g
   id="g4034"
   transform="matrix(0.48837641,0,0,0.48837641,-8506.0512,1680.8667)"><path
     inkscape:connector-curvature="0"
     id="path3929"
     d="m 27869.643,7344.0825 c -604.788,-3.4593 -1213.765,-323.2661 -1635.425,-860.6397 -239.403,-304.9471 -418.145,-679.7497 -501.592,-1107.0263 -15.806,-80.7179 -28.569,-163.1511 -37.266,-247.5147 -31.752,-306.923 6.716,-613.0976 96.578,-913.9307 125.934,-421.757 353.396,-832.0293 634.819,-1217.5928 342.465,-469.2953 763.884,-901.0561 1176.68,-1270.0196 852.556,-762.55168 1666.992,-1256.41109 1666.992,-1256.41109 0,0 917.888,323.86876 1921.289,907.63179 483.614,281.1984 986.67,622.9724 1416.694,1017.9054 351.857,323.3598 654.691,682.0084 857.066,1072.6025 136.384,262.7452 227.392,540.0299 257.475,830.4346 10.285,101.0246 14.583,200.6175 13.462,298.8721 -4.501,433.8962 -116.959,837.873 -303.793,1185.3076 -673.932,1253.6004 -2312.079,1773.9034 -3317.373,322.4708 -117.156,-169.0736 -225.781,-364.5866 -323.262,-589.1017 -64.647,240.2796 -144.384,454.0817 -236.163,643.462 -403.323,832.4335 -1042.378,1187.2325 -1686.181,1183.5498 z"
     style="fill:#ececec;stroke-width:7.55880785" /><g
     id="g4006"
     transform="translate(-413.454,-2084.9014)"><path
       inkscape:connector-curvature="0"
       style="fill:#f3a7b7;stroke-width:7.55880785"
       d="m 28283.097,9428.9839 c -604.787,-3.459 -1213.765,-323.266 -1635.424,-860.64 -239.403,-304.947 -418.146,-679.749 -501.592,-1107.026 -15.806,-80.718 -28.57,-163.151 -37.266,-247.515 -11.526,-111.412 -13.682,-222.725 -7.603,-333.72 l 4408.872,-398.936 3589.732,-324.829 c 16.247,75.108 28.618,151.128 36.592,228.105 10.285,101.025 14.583,200.618 13.462,298.873 -4.501,433.896 -116.96,837.873 -303.794,1185.307 -673.931,1253.601 -2312.078,1773.904 -3317.373,322.471 -117.156,-169.074 -225.781,-364.587 -323.262,-589.102 -64.647,240.28 -144.384,454.082 -236.162,643.462 -403.323,832.434 -1042.378,1187.233 -1686.182,1183.55 z m -1742.49,-3888.853 c 89.969,-155.801 190.725,-308.681 299.604,-457.851 342.465,-469.295 763.884,-901.0562 1176.681,-1270.0197 852.556,-762.5517 1666.992,-1256.4111 1666.992,-1256.4111 0,0 917.888,323.8687 1921.289,907.6318 483.613,281.1984 986.669,622.9724 1416.694,1017.905 150.549,138.357 292.074,283.195 420.645,434.209 l -3045.572,275.581 z"
       id="path3925-9" /><path
       inkscape:connector-curvature="0"
       style="fill:#69c5f1;stroke-width:7.55880785"
       d="m 28283.097,9428.9839 c -604.787,-3.4593 -1213.765,-323.2661 -1635.425,-860.6397 -99.96,-127.3272 -189.287,-266.8716 -265.576,-417.2901 l 3761.265,-340.3564 c -51.425,157.3509 -109.787,302.065 -174.083,434.7363 -403.323,832.4335 -1042.377,1187.2326 -1686.181,1183.5499 z m 3735.922,-360.7324 c -529.461,-3.459 -1066.208,-264.8547 -1490.316,-877.1778 -81.893,-118.183 -159.601,-249.3368 -232.266,-394.2335 l 326.44,-29.5312 3398.731,-307.5293 c -47.132,143.1523 -106.196,279.8857 -175.532,408.8232 -389.617,724.7378 -1101.498,1204.3886 -1827.057,1199.6486 z M 27664.479,4142.055 c 116.839,-114.5742 234.952,-224.8073 352.412,-329.7949 852.557,-762.5517 1666.992,-1256.4111 1666.992,-1256.4111 0,0 917.888,323.8687 1921.289,907.6318 150.932,87.7596 303.762,181.4323 455.669,280.7666 l -1776.695,160.7666 z"
       id="path3917-5" /></g></g><path
   style="fill:#cccccc;fill-opacity:1;stroke:none;stroke-width:7.5px;stroke-linecap:butt;stroke-linejoin:miter;stroke-opacity:1"
   d="m 5753.39,6055.25 c 0,0 62.2643,131.9346 197.0939,146.9157 428.4462,-242.0023 398.8525,-109.9846 449.4324,-299.6215 95.8789,-368.5345 104.8675,-464.4134 104.8675,-464.4134 l 2.9962,476.3983 -104.8675,368.5345 -350.5572,170.7843 -398.4966,-95.879 c 0,0 -204.1198,-236.5999 -182.7692,-269.6594 21.3505,-33.0594 95.8789,-155.8032 95.8789,-155.8032 z"
   id="path4036"
   inkscape:connector-curvature="0"
   sodipodi:nodetypes="ccccccccscc" /><path
   style="fill:#e6e6e6;fill-opacity:1;stroke:none;stroke-width:7.5px;stroke-linecap:butt;stroke-linejoin:miter;stroke-opacity:1"
   d="m 5711.865,5944.9155 c 50.8475,177.9662 169.4915,368.6442 245.7627,343.2205 76.2713,-25.4238 140.2876,-138.8313 262.712,-186.4408 152.5423,-59.322 250,-156.7796 250,-156.7796 0,0 -194.9153,423.7288 -347.4577,440.678 -152.5424,16.9491 -149.6208,137.7941 -309.3221,55.0847 -159.7012,-82.7093 -321.1199,-385.4282 -321.1199,-385.4282 0,0 -34.8123,-190.843 -5.1513,-237.4532 29.661,-46.6102 224.5763,127.1186 224.5763,127.1186 z"
   id="path4038"
   inkscape:connector-curvature="0"
   sodipodi:nodetypes="csscsscsc" /><g
   transform="translate(3.1953796,-77.040114)"
   id="g1869"><path
     inkscape:connector-curvature="0"
     id="path1222"
     style="fill:#d84c96;fill-opacity:1;fill-rule:nonzero;stroke:none"
     d="m 8805.77,4141 h 67.38 v -44.39 h -117.52 v 254.21 h 50.14 V 4141" /><path
     inkscape:connector-curvature="0"
     id="path1224"
     style="fill:#ed893e;fill-opacity:1;fill-rule:nonzero;stroke:none"
     d="m 9036.35,4196.56 c 0,-41.5 -4.79,-105.37 -60.35,-105.37 -76.99,0 -93.27,69.93 -93.27,132.52 0,41.2 8.95,85.59 43.12,112.41 13.1,10.54 31.93,19.16 48.86,19.16 18.52,0 44.7,-6.71 56.85,-21.71 L 9009.52,4301 c -8.62,3.82 -25.23,4.78 -34.81,4.46 -5.42,0 -15.65,-4.79 -20.11,-7.97 -25.56,-16.61 -32.59,-48.87 -32.59,-77.28 0,-37.69 7.03,-83.68 53.99,-83.68 13.08,0 14.68,45.99 15,55.89 l -24.91,0.31 -1.61,39.29 c 23.65,2.24 46.96,3.83 70.27,5.42 0.95,-13.73 1.6,-27.14 1.6,-40.88" /><path
     inkscape:connector-curvature="0"
     id="path1226"
     style="fill:#6db5b5;fill-opacity:1;fill-rule:nonzero;stroke:none"
     d="m 9108.52,4315.04 -0.32,-53.33 c 19.48,2.88 28.42,8.63 32.57,13.1 2.56,2.88 5.74,7.66 5.11,17.56 -0.64,14.38 -12.77,20.75 -37.36,22.67 z m 53.01,-144.01 c 0.33,16.6 -3.83,29.06 -13.1,37.99 -11.17,10.86 -27.78,14.38 -40.55,15.34 l -0.33,-91.65 c 16.3,0.95 32.91,4.15 43.11,13.08 7.04,5.75 10.54,14.05 10.87,25.24 z m -107.94,144.01 -0.95,35.13 c 2.87,0.33 6.06,0.33 9.24,0.33 46.32,1.59 115.93,3.83 119.45,-56.21 0.96,-16.93 -3.83,-31.62 -14.05,-43.12 -2.24,-2.23 -4.47,-4.46 -7.04,-6.7 4.49,-2.55 8.63,-6.07 12.79,-9.9 16.6,-15.96 24.59,-37.69 23.63,-64.82 -0.64,-21.08 -8.31,-38.33 -23,-51.11 -20.75,-17.56 -50.77,-21.71 -76.64,-21.71 -17.24,0 -32.57,1.92 -41.83,3.2 l -2.89,0.64 1.29,214.27" /><path
     inkscape:connector-curvature="0"
     id="path1228"
     style="fill:#5574ce;fill-opacity:1;fill-rule:nonzero;stroke:none"
     d="m 9344.51,4298.45 h -43.43 v -201.84 h -48.54 v 201.84 h -45.98 v 53.64 h 137.95 v -53.64" /><path
     inkscape:connector-curvature="0"
     id="path1230"
     style="fill:#6654b2;fill-opacity:1;fill-rule:nonzero;stroke:none"
     d="m 9429.78,4138.12 c 3.18,0 6.38,0.65 9.58,1.61 -7.99,7.98 -15.65,16.61 -22.68,25.87 l 30.34,22.35 c 3.51,-4.8 7.34,-8.95 11.17,-13.42 2.88,14.38 4.8,29.06 4.8,43.75 0,23.32 -0.65,83.35 -34.49,83.35 -8.3,0 -17.25,-12.45 -20.12,-18.84 -5.74,-13.42 -6.7,-31.93 -6.7,-46.31 0,-21.39 -2.25,-98.36 28.1,-98.36 z m 67.69,-47.25 c -8.29,5.42 -15.96,10.86 -23.31,16.92 -11.49,-9.9 -29.7,-14.05 -44.38,-14.05 -61.97,0 -72.5,72.81 -72.5,120.39 0,48.54 4.16,140.83 71.22,140.83 68.65,0 78.87,-80.47 78.87,-132.84 0,-26.83 -3.19,-58.13 -13.09,-83.04 7.35,-6.05 15.01,-11.81 22.67,-17.23 l -19.48,-30.98" /></g><g
   transform="translate(-16.544228,-46.043383)"
   id="g1911"><path
     d="m 2549.08,4493.12 h 69.95 v -46.08 h -121.99 v 263.88 h 52.04 v -217.8"
     style="fill:#000000;fill-opacity:1;fill-rule:nonzero;stroke:none"
     id="path1046-3"
     inkscape:connector-curvature="0" /><path
     d="m 2751.97,4575.66 c -0.34,25.19 -2.67,50.38 -8.63,71.94 -2.99,10.6 -7.3,20.21 -12.27,25.18 -4.65,4.98 -8.29,7.31 -17.91,7.63 h -3.32 -3.96 c -2.65,0 -4.97,0 -6.64,-0.32 -3.32,-0.67 -4.64,-1 -6.28,-2.33 -1.67,-0.99 -3.99,-3.64 -5.97,-7.29 -2.32,-3.98 -4.32,-8.96 -5.65,-13.93 -6.3,-21.54 -8.61,-47.4 -8.96,-72.59 -0.32,-25.2 1.33,-50.73 7.64,-72.27 3.32,-10.6 7.96,-20.22 13.25,-25.53 5.31,-5.3 9.62,-6.97 17.25,-7.95 h 1.32 1.66 1.32 1.33 c 1.32,0 2.66,0.33 3.65,0.65 2.32,0.66 4.31,2 6.62,3.98 4.98,4.64 10.29,13.27 13.93,23.21 7.63,20.56 10.94,45.08 11.62,69.96 z m 41.42,-41.43 c -0.99,-14.26 -2.98,-28.52 -7.63,-43.11 -4.3,-14.59 -10.6,-30.16 -24.53,-44.08 -6.63,-6.64 -15.9,-12.61 -26.18,-15.92 -4.98,-1.33 -10.28,-2.32 -15.59,-2.66 -0.98,-0.33 -2.31,-0.33 -3.65,-0.33 h -1.98 -1.33 l -3.3,0.33 -3.65,0.34 c -8.96,0.66 -18.92,3.31 -27.51,8.28 -8.96,4.98 -16.59,11.28 -22.22,18.91 -11.28,14.91 -15.9,30.83 -18.57,45.42 -2.99,14.58 -3.97,28.49 -4.65,42.43 -0.32,13.57 -0.32,27.18 -0.32,40.44 0.32,13.59 0.32,26.84 1,40.46 0.65,13.9 1.98,27.84 4.97,42.42 1.67,7.29 3.64,14.91 7.29,22.87 3.3,7.95 8.61,16.57 16.9,23.87 8.29,7.29 19.57,11.93 28.85,13.26 4.63,1 8.95,1.34 12.93,1.34 l 2.99,0.31 h 2.97 c 2.01,0 3.99,-0.31 6.3,-0.31 8.29,-0.67 17.58,-2.33 27.19,-6.31 8.95,-4.32 17.56,-10.94 23.54,-18.23 12.26,-14.93 17.58,-30.51 20.89,-44.75 6.62,-29.18 6.62,-56.38 6.62,-83.55 0,-13.59 0,-27.53 -1.33,-41.43"
     style="fill:#000000;fill-opacity:1;fill-rule:nonzero;stroke:none"
     id="path1048-6"
     inkscape:connector-curvature="0" /><path
     d="m 2857.35,4446.37 c -0.33,1.66 -36.46,197.24 -49.38,265.55 h 51.04 c 7.3,-37.47 19.56,-124.65 32.16,-188.31 18.58,67.96 33.15,157.13 44.76,188.31 l 50.73,-3.32 c -19.24,-52.39 -67.98,-260.57 -68.63,-262.23 h -60.68"
     style="fill:#000000;fill-opacity:1;fill-rule:nonzero;stroke:none"
     id="path1050-7"
     inkscape:connector-curvature="0" /><path
     d="m 3052.26,4666.17 v -42.44 h 78.25 v -46.08 h -76.25 l -2,-76.24 h 86.2 v -54.37 h -86.2 -52.37 v 54.37 76.24 46.08 42.44 46.07 h 52.37 86.2 v -46.07 h -86.2"
     style="fill:#000000;fill-opacity:1;fill-rule:nonzero;stroke:none"
     id="path1052-5"
     inkscape:connector-curvature="0" /><path
     d="m 2753.44,4049.58 h -49.39 v 263.88 h 49.39 v -263.88"
     style="fill:#000000;fill-opacity:1;fill-rule:nonzero;stroke:none"
     id="path1054-3"
     inkscape:connector-curvature="0" /><path
     d="m 2938.09,4122.18 c 0,-49.07 -41.12,-79.89 -87.84,-79.89 -46.42,0 -84.55,37.45 -83.56,84.2 v 3.97 l 44.1,3.99 c 5.96,-17.25 18.23,-34.82 38.46,-34.82 h -0.67 c 18.56,1.33 46.4,0.67 46.4,26.86 0,28.19 -97.45,40.45 -114.03,92.48 -2.66,8.3 -2.66,16.25 -2.66,24.88 0,45.09 28.18,73.92 73.6,73.92 25.86,0 56.7,-13.59 70.62,-36.8 1.98,-3.65 4.65,-8.96 5.3,-13.26 -14.26,-5.63 -24.52,-9.6 -39.78,-15.25 -13.25,10.96 -19.9,11.27 -36.8,11.93 -8.94,0.34 -20.21,-6.62 -22.21,-15.89 -4.31,-30.83 20.23,-39.79 30.16,-45.09 34.8,-18.91 78.91,-34.15 78.91,-81.23"
     style="fill:#000000;fill-opacity:1;fill-rule:nonzero;stroke:none"
     id="path1056-5"
     inkscape:connector-curvature="0" /><path
     d="m 2549.08,3697.55 h 69.95 v -46.09 h -121.99 v 263.88 h 52.04 v -217.79"
     style="fill:#000000;fill-opacity:1;fill-rule:nonzero;stroke:none"
     id="path1058-6"
     inkscape:connector-curvature="0" /><path
     d="m 2751.97,3780.11 c -0.34,25.17 -2.67,50.36 -8.63,71.92 -2.99,10.61 -7.3,20.24 -12.27,25.2 -4.65,4.97 -8.29,7.29 -17.91,7.62 h -3.32 -3.96 c -2.65,0 -4.97,0 -6.64,-0.33 -3.32,-0.65 -4.64,-0.99 -6.28,-2.32 -1.67,-1 -3.99,-3.66 -5.97,-7.29 -2.32,-3.98 -4.32,-8.95 -5.65,-13.92 -6.3,-21.57 -8.61,-47.43 -8.96,-72.61 -0.32,-25.21 1.33,-50.71 7.64,-72.27 3.32,-10.61 7.96,-20.22 13.25,-25.53 5.31,-5.31 9.62,-6.96 17.25,-7.95 h 1.32 1.66 1.32 1.33 c 1.32,0 2.66,0.34 3.65,0.66 2.32,0.67 4.31,1.98 6.62,3.98 4.98,4.64 10.29,13.27 13.93,23.2 7.63,20.57 10.94,45.1 11.62,69.95 z m 41.42,-41.45 c -0.99,-14.27 -2.98,-28.52 -7.63,-43.1 -4.3,-14.58 -10.6,-30.18 -24.53,-44.1 -6.63,-6.62 -15.9,-12.58 -26.18,-15.9 -4.98,-1.33 -10.28,-2.32 -15.59,-2.66 -0.98,-0.33 -2.31,-0.33 -3.65,-0.33 h -1.98 -1.33 l -3.3,0.33 -3.65,0.34 c -8.96,0.67 -18.92,3.3 -27.51,8.28 -8.96,4.97 -16.59,11.26 -22.22,18.9 -11.28,14.92 -15.9,30.83 -18.57,45.42 -2.99,14.59 -3.97,28.51 -4.65,42.43 -0.32,13.6 -0.32,27.18 -0.32,40.44 0.32,13.59 0.32,26.86 1,40.45 0.65,13.92 1.98,27.84 4.97,42.42 1.67,7.3 3.64,14.92 7.29,22.89 3.3,7.95 8.61,16.57 16.9,23.86 8.29,7.3 19.57,11.93 28.85,13.25 4.63,1.01 8.95,1.35 12.93,1.35 l 2.99,0.32 h 2.97 c 2.01,0 3.99,-0.32 6.3,-0.32 8.29,-0.68 17.58,-2.32 27.19,-6.31 8.95,-4.31 17.56,-10.95 23.54,-18.23 12.26,-14.92 17.58,-30.49 20.89,-44.76 6.62,-29.17 6.62,-56.34 6.62,-83.52 0,-13.62 0,-27.54 -1.33,-41.45"
     style="fill:#000000;fill-opacity:1;fill-rule:nonzero;stroke:none"
     id="path1060-2"
     inkscape:connector-curvature="0" /><path
     d="m 2857.35,3650.79 c -0.33,1.67 -36.46,197.27 -49.38,265.56 h 51.04 c 7.3,-37.47 19.56,-124.64 32.16,-188.3 18.58,67.96 33.15,157.14 44.76,188.3 l 50.73,-3.32 c -19.24,-52.37 -67.98,-260.57 -68.63,-262.24 h -60.68"
     style="fill:#000000;fill-opacity:1;fill-rule:nonzero;stroke:none"
     id="path1062-9"
     inkscape:connector-curvature="0" /><path
     d="m 3052.26,3870.59 v -42.43 h 78.25 v -46.07 h -76.25 l -2,-76.25 h 86.2 v -54.38 h -86.2 -52.37 v 54.38 76.25 46.07 42.43 46.09 h 52.37 86.2 v -46.09 h -86.2"
     style="fill:#000000;fill-opacity:1;fill-rule:nonzero;stroke:none"
     id="path1064-1"
     inkscape:connector-curvature="0" /></g><text
   xml:space="preserve"
   style="font-style:normal;font-weight:normal;font-size:373.49041748px;line-height:1.25;font-family:sans-serif;letter-spacing:0px;word-spacing:0px;fill:#000000;fill-opacity:1;stroke:none;stroke-width:9.33726025"
   x="4167.1279"
   y="-4364.6309"
   id="text1962"
   transform="matrix(0.99711458,-0.07591128,-0.07591128,-0.99711458,0,0)"><tspan
     sodipodi:role="line"
     id="tspan1960"
     x="4167.1279"
     y="-4364.6309"
     style="font-style:normal;font-variant:normal;font-weight:normal;font-stretch:normal;font-size:597.58465576px;font-family:Sequel;-inkscape-font-specification:'Sequel, Normal';font-variant-ligatures:normal;font-variant-caps:normal;font-variant-numeric:normal;font-feature-settings:normal;text-align:start;writing-mode:lr-tb;text-anchor:start;stroke-width:9.33726025">LET</tspan></text>

<text
   transform="matrix(0.99688153,-0.07891274,-0.07891274,-0.99688153,0,0)"
   id="text1966"
   y="-3731.5537"
   x="4836.457"
   style="font-style:normal;font-weight:normal;font-size:373.49041748px;line-height:1.25;font-family:sans-serif;letter-spacing:0px;word-spacing:0px;fill:#000000;fill-opacity:1;stroke:none;stroke-width:9.33726025"
   xml:space="preserve"><tspan
     style="font-style:normal;font-variant:normal;font-weight:normal;font-stretch:normal;font-size:597.58465576px;font-family:Sequel;-inkscape-font-specification:'Sequel, Normal';font-variant-ligatures:normal;font-variant-caps:normal;font-variant-numeric:normal;font-feature-settings:normal;text-align:start;writing-mode:lr-tb;text-anchor:start;stroke-width:9.33726025"
     y="-3731.5537"
     x="4836.457"
     id="tspan1964"
     sodipodi:role="line">US</tspan></text>

<text
   xml:space="preserve"
   style="font-style:normal;font-weight:normal;font-size:373.49041748px;line-height:1.25;font-family:sans-serif;letter-spacing:0px;word-spacing:0px;fill:#000000;fill-opacity:1;stroke:none;stroke-width:9.33726025"
   x="5161.2207"
   y="-3202.2456"
   id="text1970"
   transform="matrix(0.99526212,-0.09722813,-0.09722813,-0.99526212,0,0)"><tspan
     sodipodi:role="line"
     id="tspan1968"
     x="5161.2207"
     y="-3202.2456"
     style="font-style:normal;font-variant:normal;font-weight:normal;font-stretch:normal;font-size:597.58465576px;font-family:Sequel;-inkscape-font-specification:'Sequel, Normal';font-variant-ligatures:normal;font-variant-caps:normal;font-variant-numeric:normal;font-feature-settings:normal;text-align:start;writing-mode:lr-tb;text-anchor:start;stroke-width:9.33726025">HELP!</tspan></text>

<g
   id="g990"><path
     sodipodi:nodetypes="csc"
     inkscape:connector-curvature="0"
     id="path167"
     d="m 5825.8586,5120.9392 c 11.5954,-47.2761 79.8926,-123.8858 148.1613,-79.0091 41.263,27.1243 92.0922,16.2652 125.9695,76.6384"
     style="fill:none;stroke:#000000;stroke-width:6.48750019;stroke-linecap:round;stroke-linejoin:miter;stroke-miterlimit:4;stroke-dasharray:none;stroke-opacity:1" /><path
     inkscape:connector-curvature="0"
     id="path975"
     d="m 5946.1397,5030.2264 1.7897,-17.0201"
     style="fill:none;stroke:#000000;stroke-width:3.75000009;stroke-linecap:butt;stroke-linejoin:miter;stroke-opacity:1;stroke-miterlimit:4;stroke-dasharray:none" /><g
     style="stroke:#000000;stroke-opacity:1"
     transform="rotate(-20.062877,5940.3499,5087.4805)"
     id="g983"><path
       style="fill:none;stroke:#000000;stroke-width:17.25;stroke-linecap:butt;stroke-linejoin:miter;stroke-miterlimit:4;stroke-dasharray:none;stroke-opacity:1"
       d="m 5971.399,5025.424 31.7797,-65.678 v 0"
       id="path977"
       inkscape:connector-curvature="0" /><path
       style="fill:none;stroke:#000000;stroke-width:17.25;stroke-linecap:butt;stroke-linejoin:miter;stroke-miterlimit:4;stroke-dasharray:none;stroke-opacity:1"
       d="m 5959.7465,4990.4663 45.5508,24.3645 v 0 0"
       id="path979"
       inkscape:connector-curvature="0" /></g></g></g></g></svg>