<!DOCTYPE svg PUBLIC "-//W3C//DTD SVG 20010904//EN" "http://www.w3.org/TR/2001/REC-SVG-20010904/DTD/svg10.dtd">
<svg version="1.0" xmlns="http://www.w3.org/2000/svg" width="400px" height="400px" viewBox="0 0 4000 4000" preserveAspectRatio="xMidYMid meet">
<g id="layer101" fill="#34b594" stroke="none">
 <path d="M1870 3953 c-580 -43 -1117 -367 -1450 -873 -281 -428 -383 -969 -279 -1483 59 -291 214 -622 399 -847 520 -636 1353 -872 2098 -594 780 292 1290 1066 1259 1914 -30 822 -565 1545 -1329 1794 -226 74 -475 106 -698 89z"/>
 </g>
<g id="layer102" fill="#55bfe7" stroke="none">
 <path d="M1915 3023 c-586 -516 -758 -697 -875 -924 -86 -168 -115 -337 -81 -479 42 -175 173 -341 331 -418 91 -44 204 -72 295 -72 136 0 318 64 412 145 l42 36 63 -47 c129 -96 281 -141 439 -131 267 17 492 191 572 442 18 56 22 93 21 185 0 102 -4 125 -31 203 l-31 89 30 45 c56 83 81 174 82 298 1 139 -23 221 -95 329 -157 236 -450 313 -702 185 l-58 -29 -140 122 c-77 68 -144 124 -147 125 -4 1 -61 -45 -127 -104z m735 -353 c0 -11 8 -23 18 -26 88 -27 122 -69 122 -150 0 -61 -25 -94 -95 -125 -44 -19 -45 -21 -45 -66 0 -42 1 -45 23 -38 57 18 75 17 86 -3 20 -37 -2 -69 -56 -85 -36 -11 -49 -19 -51 -36 -4 -26 -26 -23 -30 5 -2 12 -21 27 -52 41 -57 25 -83 66 -83 131 0 51 26 83 89 109 l44 18 0 53 c0 28 -4 52 -9 52 -5 0 -25 -7 -46 -15 -44 -19 -73 -12 -81 20 -12 46 15 69 109 89 18 4 27 13 27 26 0 11 7 20 15 20 8 0 15 -9 15 -20z"/>
 <path d="M2657 2543 c-4 -3 -7 -24 -7 -45 0 -32 3 -39 18 -36 22 4 29 60 9 76 -8 7 -17 9 -20 5z"/>
 <path d="M2592 2328 c-21 -21 -7 -68 20 -68 4 0 8 18 8 40 0 41 -7 49 -28 28z"/>
 </g>
<g id="layer103" fill="#e39caa" stroke="none">
 <path d="M1915 3023 c-586 -516 -758 -697 -875 -924 -86 -168 -115 -337 -81 -479 42 -175 173 -341 331 -418 91 -44 204 -72 295 -72 136 0 318 64 412 145 l42 36 63 -47 c129 -96 281 -141 439 -131 267 17 492 191 572 442 18 56 22 93 21 185 0 102 -4 125 -31 203 l-31 89 30 45 c56 83 81 174 82 298 1 139 -23 221 -95 329 -157 236 -450 313 -702 185 l-58 -29 -140 122 c-77 68 -144 124 -147 125 -4 1 -61 -45 -127 -104z m735 -353 c0 -11 8 -23 18 -26 88 -27 122 -69 122 -150 0 -61 -25 -94 -95 -125 -44 -19 -45 -21 -45 -66 0 -42 1 -45 23 -38 57 18 75 17 86 -3 20 -37 -2 -69 -56 -85 -36 -11 -49 -19 -51 -36 -4 -26 -26 -23 -30 5 -2 12 -21 27 -52 41 -57 25 -83 66 -83 131 0 51 26 83 89 109 l44 18 0 53 c0 28 -4 52 -9 52 -5 0 -25 -7 -46 -15 -44 -19 -73 -12 -81 20 -12 46 15 69 109 89 18 4 27 13 27 26 0 11 7 20 15 20 8 0 15 -9 15 -20z m-260 -780 c157 -79 327 -80 482 -1 l57 29 12 -53 c18 -83 7 -219 -24 -288 -54 -119 -183 -220 -315 -248 -74 -15 -213 -6 -277 18 l-50 19 -5 306 -5 306 33 -29 c18 -16 60 -43 92 -59z"/>
 <path d="M2657 2543 c-4 -3 -7 -24 -7 -45 0 -32 3 -39 18 -36 22 4 29 60 9 76 -8 7 -17 9 -20 5z"/>
 <path d="M2592 2328 c-21 -21 -7 -68 20 -68 4 0 8 18 8 40 0 41 -7 49 -28 28z"/>
 </g>
<g id="layer104" fill="#fbfcfc" stroke="none">
 <path d="M1915 3023 c-586 -516 -758 -697 -875 -924 -86 -168 -115 -337 -81 -479 42 -175 173 -341 331 -418 91 -44 204 -72 295 -72 136 0 318 64 412 145 l42 36 63 -47 c129 -96 281 -141 439 -131 267 17 492 191 572 442 18 56 22 93 21 185 0 102 -4 125 -31 203 l-31 89 30 45 c56 83 81 174 82 298 1 139 -23 221 -95 329 -157 236 -450 313 -702 185 l-58 -29 -140 122 c-77 68 -144 124 -147 125 -4 1 -61 -45 -127 -104z m207 -209 l75 -66 -34 -56 c-83 -139 -102 -322 -50 -475 113 -328 462 -478 759 -328 l57 29 12 -53 c6 -29 10 -92 7 -141 -3 -74 -10 -100 -36 -155 -35 -73 -121 -163 -190 -198 -136 -69 -337 -67 -460 5 -66 39 -107 80 -168 166 l-56 79 -47 -73 c-101 -156 -227 -228 -398 -228 l-73 0 0 549 0 549 113 104 c181 169 396 358 405 358 5 0 42 -30 84 -66z m528 -144 c0 -11 8 -23 18 -26 88 -27 122 -69 122 -150 0 -61 -25 -94 -95 -125 -44 -19 -45 -21 -45 -66 0 -42 1 -45 23 -38 57 18 75 17 86 -3 20 -37 -2 -69 -56 -85 -36 -11 -49 -19 -51 -36 -4 -26 -26 -23 -30 5 -2 12 -21 27 -52 41 -57 25 -83 66 -83 131 0 51 26 83 89 109 l44 18 0 53 c0 28 -4 52 -9 52 -5 0 -25 -7 -46 -15 -44 -19 -73 -12 -81 20 -12 46 15 69 109 89 18 4 27 13 27 26 0 11 7 20 15 20 8 0 15 -9 15 -20z"/>
 <path d="M2657 2543 c-4 -3 -7 -24 -7 -45 0 -32 3 -39 18 -36 22 4 29 60 9 76 -8 7 -17 9 -20 5z"/>
 <path d="M2592 2328 c-21 -21 -7 -68 20 -68 4 0 8 18 8 40 0 41 -7 49 -28 28z"/>
 </g>

</svg>