<svg width="200px" height="200px" xmlns="http://www.w3.org/2000/svg" viewBox="0 0 100 100" preserveAspectRatio="xMidYMid" class="lds-colorbar" style="background: rgba(0, 0, 0, 0) none repeat scroll 0% 0%;"><defs><clipPath ng-attr-id="{{config.cpid}}" x="0" y="0" width="100" height="100" id="lds-colorbar-cpid-eea10f135fdc4"><path d="M81.3,58.7H18.7c-4.8,0-8.7-3.9-8.7-8.7v0c0-4.8,3.9-8.7,8.7-8.7h62.7c4.8,0,8.7,3.9,8.7,8.7v0C90,54.8,86.1,58.7,81.3,58.7z"/></clipPath></defs><path fill="none" ng-attr-stroke="{{config.cf}}" stroke-width="2.7928" d="M82,63H18c-7.2,0-13-5.8-13-13v0c0-7.2,5.8-13,13-13h64c7.2,0,13,5.8,13,13v0C95,57.2,89.2,63,82,63z" stroke="#56cdfc"/><g ng-attr-clip-path="url(#{{config.cpid}})" clip-path="url(#lds-colorbar-cpid-eea10f135fdc4)"><g><rect x="-100" y="0" width="25" height="100" ng-attr-fill="{{config.c1}}" fill="#ffffff"/><rect x="-75" y="0" width="25" height="100" ng-attr-fill="{{config.c2}}" fill="#f7a8b8"/><rect x="-50" y="0" width="25" height="100" ng-attr-fill="{{config.c3}}" fill="#56cdfc"/><rect x="-25" y="0" width="25" height="100" ng-attr-fill="{{config.c4}}" fill="#ffffff"/><rect x="0" y="0" width="25" height="100" ng-attr-fill="{{config.c1}}" fill="#ffffff"/><rect x="25" y="0" width="25" height="100" ng-attr-fill="{{config.c2}}" fill="#f7a8b8"/><rect x="50" y="0" width="25" height="100" ng-attr-fill="{{config.c3}}" fill="#56cdfc"/><rect x="75" y="0" width="25" height="100" ng-attr-fill="{{config.c4}}" fill="#ffffff"/><animateTransform attributeName="transform" type="translate" calcMode="linear" values="0;100" keyTimes="0;1" dur="1s" begin="0s" repeatCount="indefinite"/></g></g></svg>